# xmcd
#
# Track frame offsets: 
#        150
#        17468
#        40440
#        55771
#        73932
#        91846
#        102281
#        117021
#        129205
#        146785
#        165511
#        188057
#
# Disc length: 2698 seconds
#
# Revision: 0
# Processed by: cddbd v1.5.2PL0 Copyright (c) Steve Scherf et al.
# Submitted via: ExactAudioCopy v0.95b4
#
DISCID=9a0a880c
DTITLE=ETSU Bluegrass Band - Testing Tradition
DYEAR=2012
DGENRE=Bluegrass
TTITLE0=SmithHaven
TTITLE1=Still Making Excuses
TTITLE2=If Seeing Is Believing
TTITLE3=Myth
TTITLE4=Your Last Ride
TTITLE5=If I Had A Dollar
TTITLE6=Tack And Jibe
TTITLE7=Stewie Took My Nose
TTITLE8=March Home To Me
TTITLE9=I Recall
TTITLE10=God's Work Is Never Done
TTITLE11=Farther Down The Track
EXTD=
EXTT0=
EXTT1=
EXTT2=
EXTT3=
EXTT4=
EXTT5=
EXTT6=
EXTT7=
EXTT8=
EXTT9=
EXTT10=
EXTT11=
PLAYORDER=
